<?xml version="1.0" encoding="utf-8"?>
<!-- Generator: Adobe Illustrator 27.5.0, SVG Export Plug-In . SVG Version: 6.00 Build 0)  -->
<svg version="1.1" id="Layer_1" xmlns="http://www.w3.org/2000/svg" xmlns:xlink="http://www.w3.org/1999/xlink" x="0px" y="0px"
	 viewBox="0 0 4000 4000" style="enable-background:new 0 0 4000 4000;" xml:space="preserve">
<g>
	<rect style="fill:#FFFFFF;" width="4000" height="4000"/>
	<circle style="fill:#DC9AFE;" cx="2000" cy="2022.203" r="1257.203"/>
	<g>
		<g style="opacity:0.2;">
			<ellipse style="fill:#000072;" cx="2009.995" cy="3469.883" rx="785.564" ry="122.921"/>
		</g>
		<g>
			<g>
				<path style="fill:#6F6F87;" d="M2482.659,3443.664c-11.713,31.837-41.953,52.974-75.867,52.974h-379.496
					c-44.03,0-80.712-35.192-80.819-79.168c-0.053-22.521,3.514-41.367,9.317-57.18c24.81-67.402,90.508-79.275,90.508-79.275
					c20.551-65.006,0-174.521,0-174.521c-36.257,5.91-68.201,7.294-93.756,6.708c-6.229-0.16-12.086-0.426-17.569-0.745
					c-3.514-0.213-6.868-0.479-10.009-0.745c-24.065-1.97-37.801-5.218-37.801-5.218v293.194c0,53.56-43.444,96.95-97.003,96.95
					h-312.2c-56.807,0-102.434-48.661-96.631-105.149c8.891-87.208,110.527-118.992,110.527-118.992
					c-53.4-123.624-79.115-264.657-91.413-366.984c-10.222-84.652-11.287-142.897-11.287-142.897h1222.927
					C2616.823,3044.256,2524.771,3328.772,2482.659,3443.664z"/>
			</g>
			<g style="opacity:0.3;">
				<path style="fill:#000072;" d="M2612.085,2762.616h-666.727h-15.653h-540.547c0,0,1.065,58.245,11.287,142.897
					c92.199-3.933,163.726,8.616,219.092,31.605c303.234,125.908,126.026,583.478-184.672,477.317
					c-33.267-11.366-53.533-22.946-53.533-22.946c-5.803,56.488,39.824,105.149,96.631,105.149h312.254
					c53.544,0,96.95-43.406,96.95-96.95v-293.194c0,0,13.775,3.24,37.801,5.243v0.028c0,0,9.317,1.331,27.578,1.438
					c39.611,0.213,121.121-5.43,240.06-43.497c0,0,201.887,39.078,134.751,246.715c0,0-147.901,160.892-371.563,43.87
					c-5.803,15.813-9.37,34.659-9.317,57.18c0.107,43.976,36.789,79.168,80.819,79.168h379.496
					c33.914,0,64.154-21.136,75.867-52.974C2524.771,3328.772,2616.823,3044.256,2612.085,2762.616z"/>
			</g>
			<g>
				<g>
					<path style="fill:#000072;" d="M1485.034,3252.307c3.992-1.348,7-2.246,10.427-3.228c3.33-0.969,6.646-1.829,9.968-2.612
						c6.636-1.619,13.276-3.027,19.956-4.177c13.34-2.407,26.782-3.992,40.278-4.919c26.985-1.733,54.233-0.813,81.03,3.687
						c13.401,2.153,26.665,5.222,39.651,9.209c6.514,1.882,12.922,4.185,19.287,6.494c6.299,2.554,12.554,5.144,18.643,8.142
						c24.417,11.697,46.482,28.284,63.665,48.582c1.357,1.602,1.157,3.999-0.444,5.356c-1.16,0.981-2.734,1.147-4.031,0.559
						l-0.159-0.073c-11.855-5.408-22.993-11.187-34.7-15.659c-11.462-4.849-23.076-8.989-34.802-12.495
						c-23.34-7.251-47.283-12.009-71.567-13.696c-12.109-1.04-24.297-1.208-36.465-0.913c-12.17,0.205-24.331,1.167-36.445,2.451
						c-12.114,1.316-24.17,3.218-36.111,5.476c-5.962,1.177-11.909,2.4-17.766,3.796l-8.716,2.148
						c-2.776,0.696-5.945,1.582-8.064,2.222l-0.674,0.205c-11.257,3.396-23.137-2.974-26.533-14.231
						C1468.135,3267.607,1474.211,3255.974,1485.034,3252.307z"/>
				</g>
				<g>
					<path style="fill:#000072;" d="M2040.62,3260.515c4.114-1.152,7.271-1.931,10.83-2.761c3.464-0.823,6.907-1.563,10.356-2.202
						c6.897-1.328,13.777-2.517,20.691-3.406c13.813-1.892,27.686-3.069,41.594-3.53c27.798-0.903,55.771,0.681,83.293,5.618
						c13.76,2.405,27.432,5.447,40.808,9.622c13.364,4.131,26.65,8.628,39.333,14.607c12.756,5.74,25.024,12.629,36.362,20.793
						c11.487,7.9,21.887,17.356,31.152,27.649c2.581,2.864,2.349,7.278-0.518,9.856c-2.114,1.904-5.076,2.275-7.517,1.187
						l-0.21-0.098c-24.214-10.845-47.222-21.172-71.335-28.804c-23.855-8.135-48.645-13.164-73.679-16.025
						c-25.051-2.82-50.422-3.103-75.671-1.646c-12.625,0.784-25.229,2.039-37.739,3.726c-6.248,0.884-12.485,1.792-18.645,2.91
						l-9.175,1.714c-2.935,0.562-6.248,1.287-8.552,1.836l-0.706,0.168c-11.438,2.72-22.917-4.346-25.637-15.786
						C2023.003,3274.795,2029.692,3263.596,2040.62,3260.515z"/>
				</g>
				<g>
					<path style="fill:#000072;" d="M2043.481,3085.378c11.692-1.428,24.172-3.088,36.304-4.736
						c12.219-1.66,24.441-3.413,36.636-5.339c24.485-3.755,48.333-8.97,73.477-12.336l0.173-0.022
						c4.077-0.544,7.827,2.319,8.374,6.399c0.378,2.842-0.906,5.527-3.093,7.078c-10.798,7.615-22.439,13.755-34.343,18.982
						c-11.946,5.098-24.153,9.48-36.431,13.533c-12.3,3.975-24.705,7.588-37.224,10.732c-12.607,3.13-24.961,5.808-38.215,7.925
						c-11.616,1.855-22.539-6.057-24.395-17.673c-1.855-11.619,6.057-22.542,17.676-24.397c0.229-0.037,0.459-0.068,0.688-0.098
						L2043.481,3085.378z"/>
				</g>
				<g>
					<path style="fill:#000072;" d="M1883.452,3127.458c-10.469-2.512-20.469-5.359-30.586-8.479
						c-10.1-3-20.085-6.543-30.068-10.078c-10-3.511-19.849-7.708-29.68-12.051c-9.746-4.724-19.502-9.485-28.738-17.158
						c-2.878-2.39-3.271-6.663-0.881-9.541c1.799-2.166,4.666-2.925,7.197-2.148l0.803,0.249c8.696,2.673,18.718,4.47,28.625,5.977
						c9.934,1.682,20.051,2.82,30.115,4.243l30.388,3.594l30.239,3.45c11.709,1.338,20.117,11.912,18.779,23.618
						c-1.335,11.709-11.909,20.117-23.618,18.779C1885.198,3127.817,1884.246,3127.642,1883.452,3127.458z"/>
				</g>
			</g>
			<g>
				<path style="fill:#000072;" d="M2406.778,3517.957h-379.507c-56.133,0-101.934-45.059-102.09-100.444
					c-0.283-96.655,61.655-140.693,103.794-154.033c9.629-43.003,3.74-102.28-0.464-132.925
					c-52.593,6.519-94.736,4.009-120.059,0.952v268.184c0,65.215-53.052,118.267-118.267,118.267H1477.96
					c-33.618,0-65.82-14.312-88.359-39.272c-22.036-24.399-32.778-56.973-29.468-89.36c7.554-73.95,69.888-112.725,103.774-128.506
					c-90.049-223.174-95.811-486.401-96.021-497.822c-0.103-5.713,2.095-11.23,6.099-15.308s9.482-6.372,15.195-6.372h1222.881
					c11.621,0,21.099,9.316,21.294,20.933c4.839,286.699-89.8,577.183-130.713,688.76
					C2487.96,3491.052,2449.434,3517.957,2406.778,3517.957z M2046.334,3085.188c10.068,0,18.994,7.163,20.908,17.373
					c0.879,4.688,21.27,115.566-0.625,184.888c-2.383,7.539-8.74,13.14-16.519,14.546c-3.252,0.63-82.612,17.114-82.329,115.391
					c0.093,31.973,26.787,57.983,59.502,57.983h379.507c24.863,0,47.32-15.684,55.874-39.019
					c39.092-106.616,128.237-379.751,128.291-652.446H1411.329c3.516,70.068,20.708,296.348,100.073,480.137
					c2.393,5.542,2.324,11.836-0.195,17.319c-2.515,5.483-7.236,9.644-12.998,11.445c-0.83,0.269-88.359,28.94-95.703,100.845
					c-2.119,20.728,4.526,40.786,18.701,56.489c14.478,16.03,35.166,25.229,56.753,25.229h312.227
					c41.729,0,75.679-33.95,75.679-75.679v-293.203c0-6.514,2.979-12.666,8.086-16.704c5.103-4.038,11.768-5.532,18.115-4.019
					c0.576,0.132,62.568,14.146,150.806-0.293C2044.034,3085.281,2045.191,3085.188,2046.334,3085.188z"/>
			</g>
		</g>
		<g>
			<g>
				<path style="fill:#6F6F87;" d="M2615.014,2704.158c0,0-208.169,118.513-612.369,118.619h-0.639
					c-404.625,0-613.007-118.619-613.007-118.619c-9.157-376.514,110.58-558.063,110.58-558.063s100.091-92.265,502.427-92.265
					s502.427,92.265,502.427,92.265s29.708,45.041,58.405,136.774C2591.748,2375.294,2619.592,2515.156,2615.014,2704.158z"/>
			</g>
			<g style="opacity:0.3;">
				<path style="fill:#000072;" d="M2562.838,2282.869c0,0-138.904,314.01-560.193,314.01s-560.193-314.01-560.193-314.01
					c-28.909,92.425-56.754,232.287-52.175,421.29c0,0,208.169,118.513,612.369,118.619
					c404.199-0.107,612.369-118.619,612.369-118.619C2619.592,2515.156,2591.748,2375.294,2562.838,2282.869z"/>
			</g>
			<g>
				<polygon style="fill:#000072;" points="1854.538,2211.218 2000.621,2354.548 2135.68,2212.288 				"/>
			</g>
			<g>
				<path style="fill:#000072;" d="M2002.007,2844.084c-405.601,0-614.849-116.475-623.56-121.436
					c-6.489-3.696-10.571-10.522-10.752-17.988c-9.185-378.799,109.053-562.646,114.092-570.288c0.952-1.44,2.075-2.764,3.345-3.936
					c4.341-3.999,110.884-97.881,516.875-97.881s512.534,93.882,516.875,97.881c1.279,1.182,2.412,2.515,3.369,3.97
					c29.858,45.479,60.869,142.114,62.173,146.206c37.725,122.671,55.649,269.233,51.895,424.048
					c-0.181,7.466-4.263,14.292-10.752,17.988C2616.856,2727.61,2407.603,2844.084,2002.007,2844.084z M1410.015,2691.018
					c46.699,22.842,248.32,110.479,591.992,110.479c344.614,0,545.415-87.563,591.987-110.449
					c3.052-183.394-25.444-317.158-50.215-397.7c-0.229-0.718-29.16-90.874-55.376-132.817
					c-15.2-11.24-129.194-85.386-486.396-85.386c-356.216,0-470.566,73.735-486.27,85.288
					C1501.944,2183.513,1404.488,2358.811,1410.015,2691.018z"/>
			</g>
			<g>
				<g>
					<path style="fill:#000072;" d="M2376.544,2800.867c-407.197-229.253-775.269-687.222-778.941-691.821l33.291-26.567
						c3.618,4.536,366.675,456.147,766.548,681.27L2376.544,2800.867z"/>
				</g>
				<g>
					<path style="fill:#000072;" d="M2504.439,2764.768c-406.861-229.063-790.894-674.199-794.722-678.667l32.334-27.725
						c3.784,4.414,383.061,443.95,783.286,669.272L2504.439,2764.768z"/>
				</g>
				<g>
					<path style="fill:#000072;" d="M2017.232,2370.725l-30.449-29.775c1.719-1.763,173.33-177.402,266.538-284.043l32.07,28.027
						C2191.397,2192.473,2018.965,2368.958,2017.232,2370.725z"/>
				</g>
				<g>
					<path style="fill:#000072;" d="M2099.942,2444.675l-31.152-29.043c2.104-2.256,211.563-227.046,304.937-333.882l32.07,28.027
						C2311.973,2217.126,2102.052,2442.41,2099.942,2444.675z"/>
				</g>
			</g>
		</g>
		<g>
			<g>
				<path style="fill:#F72163;" d="M2000.621,2758.879c330.334,0,611.44-142.633,611.44-142.633s35.931,61.657,0,146.366
					c0,0-218.359,138.9-611.44,138.9s-611.44-138.9-611.44-138.9c-35.931-84.709,0-146.366,0-146.366
					S1670.287,2758.879,2000.621,2758.879z"/>
			</g>
			<g style="opacity:0.3;">
				<path style="fill:#000072;" d="M2612.061,2693.4c0,0-218.359,138.9-611.44,138.9s-611.44-138.9-611.44-138.9
					c-6.065-14.298-10.044-27.917-12.533-40.716c-5.353,26.206-6.613,64.792,12.533,109.928c0,0,218.359,138.899,611.44,138.899
					s611.44-138.899,611.44-138.899c19.145-45.137,17.886-83.722,12.533-109.928
					C2622.105,2665.483,2618.126,2679.102,2612.061,2693.4z"/>
			</g>
			<g>
				<path style="fill:#000072;" d="M2000.621,2922.805c-394.741,0-613.74-136.421-622.871-142.227
					c-3.638-2.314-6.489-5.679-8.174-9.653c-39.644-93.452-0.483-162.505,1.206-165.4c5.679-9.741,17.974-13.379,28.027-8.271
					c2.773,1.401,280.723,140.332,601.812,140.332c321.519,0,599.038-138.926,601.807-140.327
					c10.068-5.112,22.354-1.484,28.032,8.267c1.689,2.896,40.849,71.948,1.206,165.4c-1.684,3.975-4.536,7.339-8.174,9.653
					C2614.361,2786.384,2395.362,2922.805,2000.621,2922.805z M1406.226,2747.961c36.313,20.835,246.924,132.256,594.395,132.256
					c348.354,0,558.135-111.353,594.385-132.236c17.436-45.376,12.06-82.139,5.893-102.793
					c-71.626,32.974-316.211,134.985-600.278,134.985c-284.087,0-528.682-102.026-600.288-134.99
					C1394.156,2665.837,1388.785,2702.566,1406.226,2747.961z"/>
			</g>
		</g>
		<g>
			<g>
				<g>
					<path style="fill:#F72163;" d="M1765.087,2862.342c0,0-37.648,189.383-85.564,363.935c0,0,65.029,14.831,127.776-18.254
						c0,0,52.266-246.421,51.612-333.131L1765.087,2862.342z"/>
				</g>
				<g style="opacity:0.3;">
					<path style="fill:#000072;" d="M1765.087,2862.342c0,0-0.495,2.486-1.398,6.934l41.982,5.615
						c0.654,86.71-51.612,333.132-51.612,333.132c-22.244,11.729-44.76,17.419-64.578,19.899
						c20.551,2.681,69.834,5.402,117.819-19.899c0,0,52.266-246.421,51.612-333.132L1765.087,2862.342z"/>
				</g>
				<g>
					<path style="fill:#000072;" d="M1716.002,3250.891c-23.755,0-39.829-3.535-41.216-3.853
						c-5.664-1.289-10.552-4.839-13.535-9.824s-3.804-10.972-2.266-16.577c47.153-171.772,84.839-360.562,85.215-362.446
						c2.192-11.021,12.515-18.447,23.711-16.958l93.823,12.549c10.518,1.406,18.393,10.337,18.472,20.947
						c0.664,88.018-49.917,327.559-52.07,337.715c-1.313,6.187-5.308,11.47-10.903,14.419
						C1780.445,3246.257,1743.194,3250.891,1716.002,3250.891z M1706.529,3208.02c20.073,0.947,51.084-0.688,82.051-14.556
						c8.999-43.569,43.818-216.172,48.516-300.005l-55.117-7.373C1771.631,2936.169,1742.281,3074.309,1706.529,3208.02z"/>
				</g>
			</g>
			<g>
				<g>
					<path style="fill:#F72163;" d="M1952.736,2862.342c0,0,37.648,189.383,85.565,363.935c0,0-65.029,14.831-127.776-18.254
						c0,0-52.266-246.421-51.612-333.131L1952.736,2862.342z"/>
				</g>
				<g style="opacity:0.3;">
					<path style="fill:#000072;" d="M1952.736,2862.342c0,0,0.495,2.486,1.398,6.934l-41.982,5.615
						c-0.654,86.71,51.612,333.132,51.612,333.132c22.244,11.729,44.76,17.419,64.578,19.899
						c-20.551,2.681-69.834,5.402-117.819-19.899c0,0-52.266-246.421-51.612-333.132L1952.736,2862.342z"/>
				</g>
				<g>
					<path style="fill:#000072;" d="M2001.822,3250.891c-27.192,0-64.438-4.629-101.23-24.028
						c-5.596-2.949-9.59-8.232-10.903-14.419c-2.153-10.156-52.734-249.697-52.07-337.715c0.078-10.61,7.954-19.541,18.472-20.947
						l93.823-12.549c11.133-1.484,21.519,5.938,23.711,16.958c0.376,1.885,38.062,190.674,85.215,362.446
						c1.538,5.605,0.718,11.592-2.265,16.577s-7.871,8.535-13.535,9.824C2041.651,3247.356,2025.572,3250.891,2001.822,3250.891z
						 M1929.244,3193.464c30.952,13.862,61.958,15.527,82.046,14.551c-35.747-133.706-65.098-271.846-75.444-321.929l-55.117,7.373
						C1885.425,2977.307,1920.245,3149.895,1929.244,3193.464z"/>
				</g>
			</g>
			<g>
				<g>
					<path style="fill:#F72163;" d="M1973.742,2751.03c38.916,17.842,61.871,59.393,55.375,101.708
						c-8.161,53.163-46.269,116.64-187.436,95.147c-93.367-14.215-132.632-50.499-146.195-88.827
						c-30.075-84.99,62.94-163.276,140.027-116.527c4.756,2.884,9.458,6.228,14.068,10.087
						C1849.58,2752.617,1904.973,2719.501,1973.742,2751.03z"/>
				</g>
				<g style="opacity:0.3;">
					<path style="fill:#000072;" d="M1853.7,2868.934c-93.366-14.215-132.632-50.499-146.195-88.827
						c-0.759-2.146-1.385-4.284-1.99-6.419c-15.433,23.589-21.127,54.011-10.03,85.369c13.563,38.329,52.829,74.612,146.195,88.827
						c141.168,21.493,179.275-41.984,187.437-95.147c1.938-12.628,1.202-25.173-1.747-37.055
						C2006.144,2854.216,1958.145,2884.836,1853.7,2868.934z"/>
				</g>
				<g style="opacity:0.5;">
					<path style="fill:#FFFFFF;" d="M1829.902,2779.374c4.756,2.884,9.458,6.228,14.068,10.087c0,0,55.394-33.116,124.162-1.587
						c33.765,15.48,55.481,48.814,56.404,85.004c2.083-6.751,3.565-13.525,4.58-20.14c6.496-42.315-16.459-83.866-55.375-101.708
						c-68.768-31.529-124.162,1.587-124.162,1.587c-4.609-3.86-9.312-7.203-14.068-10.087
						c-68.334-41.441-149.111,15.383-145.641,88.021C1709.187,2777.642,1773.744,2745.316,1829.902,2779.374z"/>
				</g>
				<g>
					<path style="fill:#000072;" d="M1909.273,2959.089l-40.254-13.916c37.666-108.994-30.893-174.141-33.828-176.86l28.706-31.465
						C1867.691,2740.295,1956.353,2822.849,1909.273,2959.089z"/>
				</g>
				<g>
					<path style="fill:#000072;" d="M1894.258,2973.479c-16.773,0-35.293-1.421-55.786-4.541
						c-88.853-13.53-143.716-48.105-163.066-102.778c-16.963-47.944-2.236-99.819,37.524-132.158
						c38.813-31.577,91.26-35.371,133.628-9.678c1.865,1.128,3.721,2.319,5.552,3.56c22.944-9.355,72.666-22.729,130.508,3.784l0,0
						c47.651,21.851,75.43,72.964,67.549,124.302C2043.038,2902.385,2012.73,2973.479,1894.258,2973.479z M1786.915,2749.846
						c-18.53,0-35.2,7.505-47.109,17.197c-20.381,16.577-37.451,47.588-24.243,84.907c13.696,38.706,57.207,63.901,129.321,74.878
						c98.14,14.946,153.013-11.074,163.184-77.324c5.01-32.627-12.759-65.161-43.203-79.116
						c-57.104-26.191-102.573-0.522-104.478,0.576c-7.754,4.502-17.612,3.726-24.473-2.017c-3.657-3.062-7.505-5.82-11.436-8.203
						C1811.705,2753,1798.917,2749.846,1786.915,2749.846z"/>
				</g>
			</g>
		</g>
		<g>
			<g>
				<g>
					<path style="fill:#F72163;" d="M2762.929,1045.723c0,0,15.092-153.09,194.358-217.155
						C3131.268,766.391,3130.698,500,3130.698,500s107.241,29.662,134.622,91.269c27.381,61.606-39.168,231.815-251.195,353.667
						c-212.028,121.851-191.506,255.024-191.506,255.024S2771.644,1154.497,2762.929,1045.723z"/>
				</g>
				<g style="opacity:0.3;">
					<path style="fill:#000072;" d="M3265.319,591.269c-13.31-29.948-45.483-52.325-75.043-67.437
						c6.787,7.617,12.496,15.883,16.479,24.845c27.381,61.606-39.168,231.815-251.195,353.667
						c-124.379,71.48-168.718,146.843-184.134,196.946c17.215,70.339,51.192,100.67,51.192,100.67s-20.521-133.172,191.506-255.024
						C3226.152,823.084,3292.7,652.875,3265.319,591.269z"/>
				</g>
				<g>
					<path style="fill:#000072;" d="M2822.481,1221.184c-5.069,0-10.078-1.802-14.038-5.332
						c-2.344-2.09-57.451-52.48-66.739-168.428c-0.102-1.26-0.093-2.529,0.034-3.789c0.669-6.797,18.598-167.295,208.379-235.122
						c157.998-56.465,159.292-305.957,159.287-308.472c-0.015-6.655,3.086-12.939,8.379-16.978
						c5.303-4.038,12.178-5.366,18.594-3.594c4.775,1.323,117.295,33.154,148.404,103.149
						c33.471,75.313-39.868,254.243-260.044,380.776c-194.863,111.987-181.699,228.618-181.04,233.525
						c1.177,8.828-3.247,17.568-11.118,21.743C2829.395,1220.354,2825.928,1221.184,2822.481,1221.184z M2784.336,1046.17
						c3.535,40.938,13.516,71.968,23.843,94.131c15.483-54.756,61.773-137.075,195.337-213.828
						c199.707-114.771,264.844-275.923,242.344-326.558c-14.551-32.739-61.626-57.407-95.122-70.586
						c-5.43,74.121-34.223,264.951-186.284,319.292C2809.527,903.992,2786.617,1030.276,2784.336,1046.17z"/>
				</g>
			</g>
			<g>
				<g>
					<path style="fill:#F72163;" d="M2723.549,1062.835c0,0,132.73-77.763,289.921,29.624
						c152.557,104.22,367.75-52.803,367.75-52.803s39.028,104.198,5.276,162.558c-33.752,58.36-210.574,104.552-433.772,4.621
						c-223.198-99.931-318.882-5.06-318.882-5.06S2640.666,1133.814,2723.549,1062.835z"/>
				</g>
				<g style="opacity:0.3;">
					<path style="fill:#000072;" d="M3386.496,1133.002c-33.752,58.36-210.574,104.552-433.772,4.621
						c-134.29-60.125-222.36-49.721-271.263-31.901c-43.272,53.189-47.619,96.053-47.619,96.053s95.685-94.87,318.882,5.06
						c223.198,99.931,400.02,53.739,433.772-4.621c16.108-27.853,15.628-66.131,10.736-98.555
						C3395.073,1114.147,3391.638,1124.11,3386.496,1133.002z"/>
				</g>
				<g>
					<path style="fill:#000072;" d="M3205.215,1287.048c-74.253,0.005-163.838-17.188-261.191-60.776
						c-207.476-92.891-294.331-10.215-295.186-9.375c-6.386,6.328-16.045,7.974-24.16,4.102c-8.11-3.867-12.92-12.407-12.026-21.353
						c0.317-3.12,8.691-77.324,97.046-152.988c0.962-0.82,1.997-1.558,3.086-2.197c5.903-3.452,146.279-83.281,312.7,30.415
						c138.203,94.409,341.157-50.952,343.198-52.432c5.381-3.916,12.29-5.098,18.657-3.179c6.372,1.914,11.489,6.689,13.823,12.92
						c1.738,4.639,42.119,114.385,3.765,180.693C3381.002,1254.25,3307.735,1287.043,3205.215,1287.048z M2765.806,1139.695
						c50.864,0,115.669,11.904,195.62,47.7c210.219,94.116,378.892,52.124,406.631,4.16c17.939-31.016,10.234-83.599,1.211-118.447
						c-63.164,39.16-234.483,128.027-367.808,36.933c-136.382-93.164-250.483-37.793-265.664-29.648
						c-31.069,26.934-50.307,53.252-62.173,74.644C2696.656,1146.555,2727.217,1139.695,2765.806,1139.695z"/>
				</g>
			</g>
			<g>
				<g>
					<path style="fill:#6F6F87;" d="M2002.006,641.467c915.475,0,875.152,841.398,857.736,1010.918
						c-1.936,18.848,0.427,37.888,6.892,55.698c98.088,270.224-186.893,400.325-455.506,462.457
						c-269.025,62.228-549.221,62.228-818.245,0c-268.613-62.132-553.594-192.233-455.505-462.457
						c6.465-17.81,8.829-36.85,6.892-55.698C1126.854,1482.865,1086.531,641.467,2002.006,641.467z"/>
				</g>
				<g style="opacity:0.3;">
					<path style="fill:#000072;" d="M2866.635,1708.083c-6.465-17.81-8.829-36.85-6.892-55.698
						c13.267-129.129,39.792-648.084-352.932-888.064c299.538,240.04,277.488,689.302,266.17,805.537
						c-1.74,17.876,0.385,35.935,6.195,52.827c88.166,256.297-167.989,379.691-409.43,438.621
						c-241.812,59.021-493.666,59.021-735.478,0c-241.442-58.93-497.597-182.325-409.43-438.622
						c5.811-16.892,7.936-34.951,6.195-52.827c-11.317-116.235-33.367-565.496,266.169-805.536
						c-392.722,239.98-366.198,758.934-352.931,888.063c1.937,18.848-0.427,37.888-6.892,55.698
						c-98.089,270.224,186.893,400.325,455.506,462.457c269.025,62.228,549.22,62.228,818.245,0
						C2679.741,2108.407,2964.723,1978.307,2866.635,1708.083z"/>
				</g>
				<g style="opacity:0.5;">
					<path style="fill:#FFFFFF;" d="M2002.006,641.466c-796.972,0-869.572,637.646-863.524,914.575
						c5.21-238.874,77.88-642.629,487.073-795.174c14.648,20.063,71.756,25.062,136.042,10.563
						c62.523-14.102,110.989-41.945,117.848-65.918c38.848-3.549,79.605-5.481,122.561-5.481
						c744.936,0,857.004,557.107,863.524,856.007C2871.577,1279.108,2798.975,641.466,2002.006,641.466z"/>
				</g>
				<g>
					<path style="fill:#000072;" d="M2002.007,2238.264c-139.263,0-278.53-15.659-413.926-46.978
						c-243.525-56.328-398.623-143.105-460.991-257.91c-37.446-68.94-40.723-147.183-9.731-232.559
						c5.342-14.722,7.324-30.713,5.723-46.255c-11.875-115.649-31.846-513.794,209.907-781.65
						c151.367-167.705,376.455-252.739,669.019-252.739c292.568,0,517.656,85.034,669.018,252.749
						c241.758,267.866,221.782,665.996,209.902,781.641c-1.601,15.532,0.381,31.528,5.728,46.255
						c30.991,85.376,27.715,163.623-9.737,232.559c-62.368,114.81-217.471,201.582-460.991,257.91
						C2280.533,2222.605,2141.27,2238.264,2002.007,2238.264z M2002.007,662.761c-280,0-494.453,80.308-637.397,238.687
						c-229.985,254.819-210.581,637.534-199.155,748.76c2.251,21.89-0.537,44.419-8.057,65.142
						c-26.655,73.423-24.258,139.936,7.119,197.695c55.503,102.168,205.288,184.033,433.164,236.748
						c264.512,61.182,544.136,61.182,808.647,0c227.876-52.71,377.661-134.575,433.164-236.748
						c31.377-57.759,33.774-124.273,7.124-197.695c-7.524-20.733-10.313-43.257-8.061-65.142
						c11.43-111.221,30.84-493.926-199.146-748.75C2496.465,743.074,2282.012,662.761,2002.007,662.761z"/>
				</g>
			</g>
			<g>
				<g>
					<path style="fill:#F2C5A7;" d="M2002.006,1227.284h633.791c0,0,49.102,149.198,35.746,392.88
						c-3.783,69.022-47.924,129.623-112.701,153.754c-96.831,36.072-270.326,77.432-556.836,77.432s-460.005-41.36-556.836-77.432
						c-64.777-24.131-108.918-84.732-112.701-153.754c-13.356-243.682,35.746-392.88,35.746-392.88H2002.006z"/>
				</g>
				<g>
					<g>
						<path style="fill:#000072;" d="M1823.42,1636.56c-14.001-4.038-26.753-9.463-39.25-14.868
							c-12.419-5.53-24.387-11.411-36.008-17.659c-11.704-6.121-23.074-12.583-34.304-19.211
							c-11.101-6.826-22.332-13.42-33.508-20.044c-22.329-13.418-45.044-25.815-67.969-38.501
							c-22.939-12.935-46.543-23.994-70.928-37.72l-0.413-0.229c-3.955-2.227-5.356-7.239-3.132-11.194
							c1.409-2.5,3.979-3.982,6.641-4.172c7.136-0.454,14.307-0.581,21.509-0.535c3.577,0.112,7.229,0.034,10.791,0.317
							c3.53,0.371,7.1,0.671,10.637,1.118c7.08,0.869,14.263,1.675,21.284,2.991c6.956,1.475,13.938,3.005,20.894,4.692
							c27.556,7.278,54.438,17.346,79.541,30.439c3.152,1.614,6.396,3.091,9.468,4.834l9.204,5.271
							c6.133,3.521,12.332,6.948,18.184,10.898c5.857,3.945,11.814,7.747,17.378,12.104c5.525,4.417,11.174,8.635,16.431,13.384
							c10.605,9.365,20.62,19.443,29.629,30.605c8.994,11.199,17.249,23.022,23.513,37.065c1.731,3.884-0.012,8.435-3.894,10.168
							c-1.724,0.769-3.579,0.852-5.261,0.369L1823.42,1636.56z"/>
					</g>
					<g>
						<path style="fill:#000072;" d="M1580.544,1491.378c0,0-65.025,175.675,73.036,246.211
							c27.122,13.857,58.711,17.576,87.614,7.972c34.333-11.409,70.981-42.501,64.316-124.345
							C1805.51,1621.216,1748.719,1550.408,1580.544,1491.378z"/>
					</g>
					<g>
						<ellipse style="fill:#FFFFFF;" cx="1736.186" cy="1628.549" rx="40.014" ry="52.052"/>
					</g>
				</g>
				<g>
					<g>
						<path style="fill:#000072;" d="M2171.003,1626.147c6.265-14.043,14.519-25.867,23.511-37.065
							c9.009-11.162,19.026-21.24,29.629-30.605c5.259-4.749,10.908-8.967,16.431-13.384c5.564-4.358,11.523-8.159,17.378-12.104
							c5.854-3.95,12.051-7.378,18.186-10.898l9.204-5.271c3.071-1.743,6.316-3.22,9.465-4.834
							c25.103-13.093,51.987-23.162,79.543-30.439c6.956-1.687,13.936-3.218,20.891-4.692c7.021-1.316,14.204-2.122,21.284-2.991
							c3.54-0.447,7.107-0.747,10.637-1.118c3.562-0.283,7.217-0.205,10.793-0.317c7.202-0.046,14.37,0.081,21.509,0.535
							c4.529,0.291,7.966,4.197,7.678,8.726c-0.183,2.861-1.809,5.288-4.124,6.614l-0.459,0.256
							c-24.385,13.726-47.991,24.785-70.928,37.72c-22.925,12.686-45.642,25.083-67.971,38.501
							c-11.177,6.624-22.405,13.218-33.508,20.044c-11.23,6.628-22.6,13.091-34.304,19.211
							c-11.621,6.248-23.589,12.129-36.006,17.659c-12.5,5.405-25.251,10.83-39.25,14.868l-0.427,0.122
							c-4.084,1.179-8.352-1.179-9.531-5.264C2170.112,1629.604,2170.291,1627.747,2171.003,1626.147z"/>
					</g>
					<g>
						<path style="fill:#000072;" d="M2423.469,1491.378c0,0,65.025,175.675-73.036,246.211
							c-27.122,13.857-58.711,17.576-87.614,7.972c-34.333-11.409-70.981-42.501-64.316-124.345
							C2198.502,1621.216,2255.294,1550.408,2423.469,1491.378z"/>
					</g>
					<g>
						<ellipse style="fill:#FFFFFF;" cx="2267.827" cy="1628.549" rx="40.014" ry="52.052"/>
					</g>
				</g>
				<g>
					<path style="fill:#000072;" d="M2002.007,1872.644c-291.592,0-467.798-42.832-564.268-78.769
						c-72.607-27.046-122.275-94.775-126.533-172.549c-13.423-244.873,34.722-394.453,36.777-400.698
						c2.876-8.735,11.035-14.639,20.229-14.639h1267.583c9.194,0,17.354,5.903,20.229,14.639
						c2.056,6.245,50.2,155.825,36.782,400.703c-4.263,77.769-53.931,145.498-126.528,172.544
						C2469.805,1829.812,2293.599,1872.644,2002.007,1872.644z M1384.268,1248.577c-11.338,42.764-41.152,176.758-30.532,370.42
						c3.33,60.859,42.139,113.833,98.867,134.966c93.193,34.712,264.155,76.094,549.404,76.094s456.211-41.382,549.404-76.094
						c56.724-21.133,95.532-74.106,98.867-134.966c10.615-193.647-19.194-327.637-30.537-370.42H1384.268z"/>
				</g>
			</g>
			<g style="opacity:0.3;">
				<path style="fill:#000072;" d="M2762.929,1104.287c0,0-296.212,54.369-760.923,54.369s-760.923-54.369-760.923-54.369
					c-106.448,33.477-59.689,154.236-59.689,154.236s232.688,55.291,820.612,55.291s820.612-55.291,820.612-55.291
					S2869.377,1137.764,2762.929,1104.287z"/>
			</g>
			<g>
				<g>
					<path style="fill:#F72163;" d="M2762.929,1045.723c0,0-296.212,54.369-760.923,54.369s-760.923-54.369-760.923-54.369
						c-106.448,33.477-59.689,154.236-59.689,154.236s232.688,55.291,820.612,55.291s820.612-55.291,820.612-55.291
						S2869.377,1079.2,2762.929,1045.723z"/>
				</g>
				<g style="opacity:0.3;">
					<path style="fill:#000072;" d="M2822.618,1125.423c0,0-232.688,55.291-820.612,55.291s-820.612-55.291-820.612-55.291
						s-2.713-7.051-5.345-18.16c-13.429,44.089,5.345,92.696,5.345,92.696s232.688,55.291,820.612,55.291
						s820.612-55.291,820.612-55.291s18.773-48.607,5.345-92.696C2825.331,1118.372,2822.618,1125.423,2822.618,1125.423z"/>
				</g>
				<g>
					<path style="fill:#000072;" d="M2002.007,1276.546c-583.711,0-815.938-53.589-825.537-55.869
						c-6.821-1.621-12.407-6.489-14.937-13.027c-1.069-2.759-25.869-68.213,0.41-122.852c13.73-28.545,38.208-48.525,72.754-59.39
						c3.306-1.035,6.816-1.255,10.229-0.63c2.944,0.542,299.976,54.018,757.08,54.018c457.099,0,754.136-53.476,757.08-54.018
						c3.423-0.625,6.929-0.405,10.229,0.63c34.546,10.864,59.019,30.845,72.749,59.39c26.279,54.634,1.479,120.093,0.41,122.852
						c-2.529,6.538-8.115,11.406-14.937,13.027C2817.94,1222.957,2585.719,1276.546,2002.007,1276.546z M1197.979,1181.677
						c53.862,10.62,297.568,52.28,804.028,52.28c506.421,0,750.132-41.655,804.024-52.28c4.555-16.992,10.84-51.191-2.427-78.579
						c-7.959-16.436-21.836-28.071-42.339-35.464c-42.886,7.315-332.129,53.75-759.258,53.75
						c-427.134,0-716.372-46.435-759.258-53.75c-20.503,7.393-34.385,19.028-42.344,35.464
						C1187.144,1130.481,1193.419,1164.661,1197.979,1181.677z"/>
				</g>
			</g>
		</g>
		<g>
			<g>
				<path style="fill:#D3D3E5;" d="M3495.712,2462.98h-0.053c-3.78-0.958-111.112-27.632-296.175-57.712
					c-50.631-8.305-107.119-16.824-168.931-25.076c-23.266-3.141-47.277-6.283-71.981-9.317c-23.532-2.929-47.756-5.75-72.566-8.572
					c-250.282-28.111-564.665-49.3-918.393-42.166c0,0,5.537-92.478,4.313-171.487c-0.213-16.344-0.745-32.104-1.703-46.319
					c0,0,385.831-19.592,772.621,29.761c24.544,3.141,49.141,6.549,73.631,10.275c24.757,3.727,49.354,7.773,73.738,12.139
					c61.12,10.968,120.908,24.011,177.875,39.504C3268.643,2248.316,3434.167,2332.701,3495.712,2462.98z"/>
			</g>
			<g>
				<path style="fill:#FFFFFF;" d="M3495.712,2462.98c0,0,0-0.053-0.053,0c-5.537-6.815-291.064-344.357-1523.68-314.33h-0.053
					c-0.213-16.344-0.745-32.104-1.703-46.319C1970.222,2102.331,3293.719,2035.195,3495.712,2462.98z"/>
			</g>
			<g style="opacity:0.3;">
				<path style="fill:#000072;" d="M2047.756,2101.726c0.047-0.65,0.094-1.301,0.141-1.952c-49.193,1.115-77.675,2.558-77.675,2.558
					c0.958,14.215,1.49,29.974,1.703,46.319c1.225,79.009-4.313,171.487-4.313,171.487
					c881.604-17.835,1518.676,140.501,1528.046,142.844c0.053-0.053,0.053,0,0.053,0c-3.462-7.332-7.284-14.505-11.393-21.549
					c-174.288-48.291-669.02-170.873-1322.683-209.508C2094.007,2227.926,2042.833,2169.295,2047.756,2101.726z"/>
			</g>
			<defs>
				
					<filter id="Adobe_OpacityMaskFilter" filterUnits="userSpaceOnUse" x="2890.212" y="2154.507" width="309.272" height="250.761">
					<feFlood  style="flood-color:white;flood-opacity:1" result="back"/>
					<feBlend  in="SourceGraphic" in2="back" mode="normal"/>
				</filter>
			</defs>
			<mask maskUnits="userSpaceOnUse" x="2890.212" y="2154.507" width="309.272" height="250.761" id="SVGID_1_">
				<g style="filter:url(#Adobe_OpacityMaskFilter);">
					<defs>
						
							<filter id="Adobe_OpacityMaskFilter_00000178883924647978150160000007919852342308784778_" filterUnits="userSpaceOnUse" x="2890.212" y="2154.507" width="309.272" height="250.761">
							<feFlood  style="flood-color:white;flood-opacity:1" result="back"/>
							<feBlend  in="SourceGraphic" in2="back" mode="normal"/>
						</filter>
					</defs>
					<mask maskUnits="userSpaceOnUse" x="2890.212" y="2154.507" width="309.272" height="250.761" id="SVGID_1_">
						<g style="filter:url(#Adobe_OpacityMaskFilter_00000178883924647978150160000007919852342308784778_);">
						</g>
					</mask>
					
						<linearGradient id="SVGID_00000160909723001701076670000012984657178031305363_" gradientUnits="userSpaceOnUse" x1="2966.4167" y1="2063.2668" x2="3062.2488" y2="2327.9463">
						<stop  offset="0" style="stop-color:#FFFFFF"/>
						<stop  offset="1" style="stop-color:#000000"/>
					</linearGradient>
					<path style="mask:url(#SVGID_1_);fill:url(#SVGID_00000160909723001701076670000012984657178031305363_);" d="
						M3199.484,2405.268c-50.631-8.305-107.119-16.824-168.931-25.076l-140.341-225.685c61.12,10.968,120.908,24.011,177.875,39.504
						L3199.484,2405.268z"/>
				</g>
			</mask>
			
				<linearGradient id="SVGID_00000021798354081887484730000016218867203362166951_" gradientUnits="userSpaceOnUse" x1="2966.4167" y1="2063.2668" x2="3062.2488" y2="2327.9463">
				<stop  offset="0" style="stop-color:#FFFFFF"/>
				<stop  offset="1" style="stop-color:#FFFFFF"/>
			</linearGradient>
			<path style="fill:url(#SVGID_00000021798354081887484730000016218867203362166951_);" d="M3199.484,2405.268
				c-50.631-8.305-107.119-16.824-168.931-25.076l-140.341-225.685c61.12,10.968,120.908,24.011,177.875,39.504L3199.484,2405.268z"
				/>
			<defs>
				
					<filter id="Adobe_OpacityMaskFilter_00000168091110118175538060000000500997626489700784_" filterUnits="userSpaceOnUse" x="2742.843" y="2132.093" width="215.729" height="238.782">
					<feFlood  style="flood-color:white;flood-opacity:1" result="back"/>
					<feBlend  in="SourceGraphic" in2="back" mode="normal"/>
				</filter>
			</defs>
			
				<mask maskUnits="userSpaceOnUse" x="2742.843" y="2132.093" width="215.729" height="238.782" id="SVGID_00000004515871077677302230000016496775411009179529_">
				<g style="filter:url(#Adobe_OpacityMaskFilter_00000168091110118175538060000000500997626489700784_);">
					<defs>
						
							<filter id="Adobe_OpacityMaskFilter_00000181769046689460560340000012453927418462738862_" filterUnits="userSpaceOnUse" x="2742.843" y="2132.093" width="215.729" height="238.782">
							<feFlood  style="flood-color:white;flood-opacity:1" result="back"/>
							<feBlend  in="SourceGraphic" in2="back" mode="normal"/>
						</filter>
					</defs>
					
						<mask maskUnits="userSpaceOnUse" x="2742.843" y="2132.093" width="215.729" height="238.782" id="SVGID_00000004515871077677302230000016496775411009179529_">
						<g style="filter:url(#Adobe_OpacityMaskFilter_00000181769046689460560340000012453927418462738862_);">
						</g>
					</mask>
					
						<linearGradient id="SVGID_00000179625027011301708990000000862560408166417331_" gradientUnits="userSpaceOnUse" x1="2803.8694" y1="2122.1201" x2="2899.7014" y2="2386.7998">
						<stop  offset="0" style="stop-color:#FFFFFF"/>
						<stop  offset="1" style="stop-color:#000000"/>
					</linearGradient>
					
						<path style="mask:url(#SVGID_00000004515871077677302230000016496775411009179529_);fill:url(#SVGID_00000179625027011301708990000000862560408166417331_);" d="
						M2958.572,2370.875c-23.532-2.929-47.756-5.75-72.566-8.572l-143.163-230.21c24.544,3.141,49.141,6.549,73.631,10.275
						L2958.572,2370.875z"/>
				</g>
			</mask>
			
				<linearGradient id="SVGID_00000133526514937725806820000008742026865534406827_" gradientUnits="userSpaceOnUse" x1="2803.8694" y1="2122.1201" x2="2899.7014" y2="2386.7998">
				<stop  offset="0" style="stop-color:#FFFFFF"/>
				<stop  offset="1" style="stop-color:#FFFFFF"/>
			</linearGradient>
			<path style="fill:url(#SVGID_00000133526514937725806820000008742026865534406827_);" d="M2958.572,2370.875
				c-23.532-2.929-47.756-5.75-72.566-8.572l-143.163-230.21c24.544,3.141,49.141,6.549,73.631,10.275L2958.572,2370.875z"/>
			<g>
				<path style="fill:#000072;" d="M3495.772,2484.338c-1.729,0-3.467-0.215-5.191-0.645
					c-6.377-1.602-647.832-160.044-1522.519-142.28c-6.006,0.093-11.67-2.251-15.786-6.538s-6.26-10.098-5.903-16.035
					c0.083-1.333,7.959-134.321,2.612-215.093c-0.376-5.693,1.548-11.299,5.337-15.562c3.794-4.263,9.136-6.826,14.834-7.114
					c3.325-0.161,336.641-16.436,690.307,20c480.562,49.517,768.418,168.242,855.566,352.876c3.516,7.446,2.422,16.25-2.807,22.612
					C3508.121,2481.55,3502.052,2484.333,3495.772,2484.338z M2104.542,2297.444c676.279,0,1192.598,100.005,1348.081,133.887
					c-238.809-338.384-1296.045-314.419-1460.02-308.579c2.339,61.255-0.654,137.915-2.49,175.654
					C2028.746,2297.756,2066.866,2297.444,2104.542,2297.444z"/>
			</g>
		</g>
		<g>
			<g>
				<path style="fill:#6F6F87;" d="M1871.781,2105.366v205.347c0,0-464.893-1.544-721.617,5.803c0,0,0,0-0.053,0.053
					c-17.676,0.479-34.393,1.011-49.886,1.597c-36.363,1.438-68.573-22.947-77.092-58.298c-6.549-27.206-9.104-61.812,1.597-100.091
					c9.051-32.317,38.759-54.571,72.354-54.944c14.854-0.159,32.742-0.319,53.08-0.479
					C1324.099,2102.757,1679.052,2100.362,1871.781,2105.366z"/>
			</g>
			<g>
				<path style="fill:#F72163;" d="M1150.163,2316.517c0,0,0,0-0.053,0.053c-17.676,0.479-34.393,1.011-49.886,1.597
					c-36.363,1.438-68.573-22.947-77.092-58.298c-6.549-27.206-9.104-61.812,1.597-100.091
					c9.051-32.317,38.759-54.571,72.354-54.944c14.854-0.159,32.742-0.319,53.08-0.479
					C1150.163,2104.354,1125.034,2221.376,1150.163,2316.517z"/>
			</g>
			<g>
				<polygon style="fill:#F72163;" points="1270.239,2142.602 1220.358,2209.227 1270.239,2279.98 1320.12,2209.227 				"/>
			</g>
			<g>
				<polygon style="fill:#F72163;" points="1537.073,2142.602 1487.193,2209.227 1537.073,2279.98 1586.954,2209.227 				"/>
			</g>
			<g>
				<polygon style="fill:#F72163;" points="1710.674,2142.602 1660.794,2209.227 1710.674,2279.98 1760.555,2209.227 				"/>
			</g>
			<g style="opacity:0.3;">
				<path style="fill:#000072;" d="M1150.163,2226.008c0,0,0,0-0.053,0.053c-17.676,0.479-34.393,1.011-49.886,1.597
					c-36.363,1.438-68.573-22.947-77.092-58.298c-0.14-0.583-0.268-1.19-0.405-1.78c-8.319,35.175-5.696,66.945,0.405,92.288
					c8.518,35.352,40.728,59.736,77.092,58.298c15.493-0.586,32.21-1.118,49.886-1.597c0.053-0.053,0.053-0.053,0.053-0.053
					c256.724-7.347,721.617-5.803,721.617-5.803v-90.508C1871.781,2220.205,1406.887,2218.661,1150.163,2226.008z"/>
			</g>
			<g>
				<path style="fill:#000072;" d="M1150.132,2337.839c-9.434,0-18.057-6.318-20.576-15.869
					c-26.113-98.95-1.299-217.129-0.229-222.109c2.466-11.499,13.774-18.862,25.288-16.353
					c11.499,2.466,18.823,13.789,16.353,25.288c-0.357,1.689-23.643,113.574-0.229,202.305c3.003,11.372-3.784,23.022-15.156,26.025
					C1153.76,2337.605,1151.929,2337.834,1150.132,2337.839z"/>
			</g>
			<g style="opacity:0.5;">
				<path style="fill:#FFFFFF;" d="M1150.163,2104.354c-20.338,0.16-38.226,0.32-53.08,0.479
					c-33.595,0.373-63.303,22.627-72.354,54.944c-7.237,25.887-8.399,50.083-6.375,71.458c1.052-10.977,3.082-22.407,6.375-34.189
					c9.051-32.317,38.759-54.571,72.354-54.944c14.854-0.16,32.742-0.32,53.08-0.479c173.936-1.598,528.888-3.993,721.617,1.011
					v-37.268C1679.052,2100.362,1324.099,2102.757,1150.163,2104.354z"/>
			</g>
			<g>
				<path style="fill:#000072;" d="M1097.286,2339.543c-44.756,0-84.297-30.894-94.853-74.692
					c-8.975-37.246-8.379-74.521,1.773-110.791c11.504-41.069,49.595-70.063,92.637-70.508l0,0
					c162.661-1.685,563.838-4.99,775.474,0.542c11.543,0.303,20.737,9.746,20.737,21.289v205.352c0,5.659-2.251,11.089-6.26,15.083
					c-3.994,3.979-9.399,6.211-15.034,6.211c-0.024,0-0.049,0-0.073,0c-5.298-0.015-533.55-1.68-770.654,7.441
					C1099.776,2339.519,1098.531,2339.543,1097.286,2339.543z M1097.281,2126.14c-24.224,0.249-45.635,16.455-52.061,39.404
					c-8.169,29.18-8.633,59.233-1.382,89.326c6.113,25.352,29.463,42.861,55.552,42.041c210.63-8.11,649.277-7.739,751.074-7.524
					v-163.218C1634.971,2121.375,1254.537,2124.524,1097.281,2126.14L1097.281,2126.14z M1097.061,2104.846h0.049H1097.061z"/>
			</g>
		</g>
		<g>
			<g>
				<path style="fill:#F72163;" d="M1833.948,2087.473c0.687,48.015,1.865,152.738,0.44,230.32
					c-0.428,23.294,16.153,43.3,39.082,47.426c15.943,2.869,35.854,3.631,58.226-1.62c20.309-4.767,34.863-22.645,35.934-43.479
					c2.846-55.367,7.541-171.339,1.099-237.168c-1.527-15.599-10.801-29.487-24.697-36.736
					c-18.642-9.724-47.795-17.915-81.849-2.705C1844.845,2051.255,1833.676,2068.486,1833.948,2087.473z"/>
			</g>
			<g>
				<path style="fill:#000072;" d="M1898.619,2388.767c-9.673,0-19.326-0.864-28.921-2.593
					c-33.418-6.011-57.227-34.937-56.602-68.774c1.44-78.687,0.171-186.792-0.444-229.619c0-0.005,0-0.005,0-0.005
					c-0.391-27.451,15.645-52.461,40.85-63.711c41.909-18.721,77.71-8.555,100.381,3.267c20.322,10.606,33.799,30.62,36.045,53.545
					c6.455,65.977,2.129,178.896-1.025,240.337c-1.563,30.298-23.086,56.25-52.344,63.115
					C1923.965,2387.288,1911.28,2388.767,1898.619,2388.767z M1855.24,2087.166c0.615,43.037,1.895,151.699,0.444,231.016
					c-0.239,12.822,8.828,23.784,21.558,26.079c16.401,2.954,33.081,2.48,49.585-1.396c10.913-2.559,18.945-12.363,19.536-23.843
					c2.49-48.501,7.588-168.413,1.172-233.994c-0.835-8.555-5.83-16.006-13.354-19.932c-20.85-10.879-42.153-11.587-63.311-2.139
					C1861.226,2067.263,1855.093,2076.765,1855.24,2087.166L1855.24,2087.166z"/>
			</g>
		</g>
		<g>
			<g>
				<path style="fill:#6F6F87;" d="M1457.625,2406.812c-42.805,83.48-92.105,166.801-82.735,256.138c0,0-5.963-2.502-15.813-7.933
					c-48.661-27.153-192.57-127.723-179.259-363.098c2.928-52.175,12.777-94.714,27.259-128.788
					c51.856-122.293,163.394-135.922,230.796-96.258c15.706,9.211,29.016,21.349,38.599,35.671
					C1549.092,2210.888,1507.831,2309.01,1457.625,2406.812z"/>
			</g>
			<g>
				<path style="fill:#F2C5A7;" d="M1457.625,2406.812c-244.692-49.354-250.548-243.68-250.548-243.68
					c63.942-150.776,218.551-136.401,269.395-60.587C1549.092,2210.888,1507.831,2309.01,1457.625,2406.812z"/>
			</g>
			<g style="opacity:0.3;">
				<path style="fill:#000072;" d="M1457.625,2406.812c-42.805,83.48-92.105,166.801-82.735,256.138c0,0-5.963-2.502-15.813-7.933
					c-22.574-68.733-40.888-176.065,14.109-274.347c90.189-161.052,64.687-313.798,64.687-313.798
					c15.706,9.211,29.016,21.349,38.599,35.671C1549.092,2210.888,1507.831,2309.01,1457.625,2406.812z"/>
			</g>
			<g>
				<path style="fill:#000072;" d="M1457.662,2428.118c-1.401,0-2.813-0.137-4.238-0.425
					c-134.131-27.065-199.77-96.768-231.211-150.469c-34.399-58.76-36.357-111.235-36.421-113.442
					c-0.356-11.753,8.887-21.572,20.645-21.924c0.215-0.01,0.435-0.01,0.649-0.01c11.44,0,20.889,9.072,21.274,20.576
					c0.273,7.275,9.272,178.271,233.491,223.521c11.528,2.324,18.989,13.56,16.66,25.088
					C1476.475,2421.14,1467.589,2428.118,1457.662,2428.118z"/>
			</g>
			<g style="opacity:0.5;">
				<path style="fill:#FFFFFF;" d="M1222.41,2318.54c2.928-52.175,12.777-94.714,27.259-128.788
					c47.02-110.887,143.107-132.432,210.868-105.918c-6.764-6.39-14.367-12.094-22.665-16.96
					c-67.402-39.664-178.94-26.035-230.796,96.258c-14.481,34.074-24.331,76.613-27.259,128.788
					c-13.31,235.375,130.598,335.945,179.259,363.098c3.434,1.893,6.359,3.408,8.76,4.608
					C1306.534,2614.153,1211.481,2511.821,1222.41,2318.54z"/>
			</g>
			<g>
				<path style="fill:#000072;" d="M1374.883,2684.26c-2.778,0-5.566-0.537-8.208-1.641c-2.334-0.977-57.881-24.609-111.265-84.971
					c-48.96-55.361-105.508-153.555-96.85-306.938c11.152-197.49,114.775-246.841,158.813-258.892
					c67.217-18.413,141.567,6.348,176.768,58.848c85.644,127.749,26.802,240.796-30.103,350.117
					c-38.97,74.873-75.776,145.591-67.974,219.961c0.781,7.476-2.436,14.814-8.467,19.307
					C1383.863,2682.83,1379.39,2684.26,1374.883,2684.26z M1363.38,2068.25c-11.558,0-23.281,1.509-34.766,4.648
					c-74.292,20.332-120.776,100.596-127.524,220.215c-11.294,199.99,97.144,297.173,151.758,333.125
					c4.219-72.183,39.307-139.595,73.413-205.117c53.525-102.837,104.082-199.966,32.5-306.733
					C1439.254,2085.286,1402.256,2068.25,1363.38,2068.25z"/>
			</g>
		</g>
		<g>
			<g>
				<path style="fill:#6F6F87;" d="M2625.182,2666.145c-64.634,47.863-145.506,68.414-225.366,59.097
					c-352.184-41.261-562.536-150.137-673.914-264.391c-125.114-128.255-125.594-263.379-62.344-317.258
					c64.687-55.104,127.457-52.335,172.552-37.268c30.613,10.222,58.138,28.324,80.392,51.749
					c24.81,26.141,51.217,50.099,78.583,71.927c0,0.053,0,0.053,0,0.053c136.241,108.876,295.536,166.429,394.031,194.007
					c46.212,12.937,90.455-24.65,81.67-71.874l250.655,4.579C2768.026,2529.371,2700.411,2610.402,2625.182,2666.145z"/>
			</g>
			<g>
				<path style="fill:#F2C5A7;" d="M1995.085,2230.001c0,0.053,0,0.053,0,0.053s-38.599,173.829-269.182,230.796
					c-125.114-128.255-125.594-263.379-62.344-317.258c64.687-55.104,127.457-52.335,172.552-37.268
					c30.613,10.222,58.138,28.324,80.392,51.749C1941.312,2184.215,1967.719,2208.173,1995.085,2230.001z"/>
			</g>
			<g style="opacity:0.3;">
				<path style="fill:#000072;" d="M1639.306,2173.62c0,0,65.075,275.638,475.342,392.867
					c137.621,39.324,209.599-157.368,78.871-215.643c-6.001-2.675-12.14-5.357-18.422-8.047c0,0,175.875-48.953,546.343,13.969
					c0,0,45.323,357.835-245.597,357.835C2028.305,2714.601,1546.61,2463.756,1639.306,2173.62z"/>
			</g>
			<g>
				<path style="fill:#000072;" d="M1725.87,2482.146c-9.57,0-18.262-6.489-20.659-16.191c-2.822-11.421,4.15-22.964,15.566-25.781
					c215.303-53.179,253.184-213.14,253.54-214.751c2.554-11.479,13.921-18.691,25.41-16.172
					c11.479,2.554,18.721,13.926,16.172,25.41c-1.694,7.622-44.243,187.422-284.907,246.86
					C1729.278,2481.946,1727.559,2482.146,1725.87,2482.146z"/>
			</g>
			<g>
				<path style="fill:#000072;" d="M2481.941,2450.554c-28.171,0.85-55.676-2.48-82.922-7.258
					c-27.195-4.966-54.001-11.819-80.269-20.332c-52.441-17.297-103.818-37.976-153.655-62.141
					c-49.795-24.224-98.044-52.019-143.589-84.097c-22.72-16.091-44.954-32.988-66.038-51.343
					c-10.759-8.916-20.857-18.621-31.165-28.081c-5.085-4.807-9.946-9.861-14.927-14.785l-14.063-14.038
					c-17.532-16.897-38.259-30.212-60.627-38.508c-22.493-8.401-46.45-11.838-69.534-9.146c-23.13,2.659-45.43,11.44-65.598,24.8
					c-5.049,3.328-9.961,6.943-14.771,10.745c-2.302,1.89-4.944,3.999-6.914,5.801c-1.931,1.765-3.865,3.525-5.605,5.515
					c-7.263,7.639-12.856,17.109-17.2,27.307c-8.401,20.664-10.869,44.722-8.284,68.701c2.493,24.05,9.595,48.115,19.873,70.991
					c20.54,45.947,53.04,87.114,90.542,122.896c37.803,35.72,80.967,66.299,126.855,92.402
					c45.928,26.125,94.592,47.844,144.509,66.426c100.073,36.887,205.249,60.662,311.536,76.357
					c13.306,1.904,26.604,3.838,39.954,5.5l19.988,2.6c6.284,0.525,12.544,1.458,18.853,1.646
					c12.595,0.952,25.232,0.601,37.825,0.039c12.571-0.959,25.134-2.285,37.5-4.731c24.768-4.626,48.892-12.524,71.599-23.274
					c22.72-10.884,43.752-24.529,63.242-41.055c19.382-16.245,36.228-34.805,49.473-55.513c13.264-20.693,22.72-43.611,28.13-67.783
					c11.147-48.438,6.418-100.857-5.889-151.438l-0.044-0.186c-2.781-11.428,4.229-22.947,15.657-25.725
					c11.35-2.764,22.791,4.146,25.671,15.435c6.98,27.4,12.4,55.508,14.214,84.363c2.048,28.77,0.54,58.315-5.657,87.305
					c-6.221,28.96-17.563,57.197-33.469,82.434c-15.859,25.276-35.925,47.537-58.057,66.394
					c-11.008,9.502-22.568,18.113-34.778,26.355c-12.241,8.037-24.954,15.347-38.115,21.748
					c-26.335,12.734-54.29,22.107-82.937,27.7c-14.309,2.935-28.826,4.617-43.359,5.815c-14.553,0.801-29.16,1.27-43.716,0.313
					c-7.295-0.188-14.531-1.152-21.797-1.738l-20.491-2.5c-13.66-1.56-27.266-3.643-40.886-5.562
					c-108.833-16.099-217.083-40.476-321.311-78.892c-52.009-19.368-103.027-42.104-151.697-69.792
					c-48.621-27.681-94.939-60.356-136.255-99.402c-41.069-39.089-77.471-84.912-101.064-138.708
					c-11.802-26.782-20.281-55.564-23.23-85.696c-2.971-30-0.129-61.758,12.183-91.541c6.335-14.753,14.885-29.038,26.414-41.128
					c2.795-3.088,5.869-5.928,8.994-8.713c3.086-2.739,5.789-4.851,8.755-7.253c5.886-4.6,11.963-9.011,18.296-13.127
					c25.217-16.523,54.89-28.264,85.94-31.589c62.527-6.763,123.889,19.146,166.428,61.372l14.658,14.937
					c4.644,4.68,9.155,9.492,13.906,14.075c9.646,9.019,19.055,18.291,29.167,26.836c19.761,17.585,40.728,33.865,62.222,49.436
					c43.096,31.04,89.121,58.232,136.895,82.1c47.793,23.862,97.41,44.255,148.02,61.814
					c50.554,17.813,101.223,35.19,152.107,55.667l0.144,0.059c2.446,0.984,3.63,3.762,2.646,6.206
					C2485.496,2449.38,2483.777,2450.498,2481.941,2450.554z"/>
			</g>
		</g>
	</g>
</g>
</svg>
